<mxfile host="Electron" agent="Mozilla/5.0 (Windows NT 10.0; Win64; x64) AppleWebKit/537.36 (KHTML, like Gecko) draw.io/24.7.8 Chrome/128.0.6613.36 Electron/32.0.1 Safari/537.36" version="24.7.8">
  <diagram id="WI9T0HZ2pTsCkuznbFz-" name="Page-1">
    <mxGraphModel dx="819" dy="-349" grid="1" gridSize="10" guides="1" tooltips="1" connect="1" arrows="1" fold="1" page="1" pageScale="1" pageWidth="1169" pageHeight="827" math="0" shadow="0">
      <root>
        <mxCell id="0" />
        <mxCell id="1" parent="0" />
        <mxCell id="z3-zlnk_Hfb4m_1-O7ZJ-33" value="Open Web Page" style="edgeStyle=orthogonalEdgeStyle;rounded=0;orthogonalLoop=1;jettySize=auto;html=1;entryX=0.5;entryY=0;entryDx=0;entryDy=0;entryPerimeter=0;" parent="1" source="z3-zlnk_Hfb4m_1-O7ZJ-2" target="z3-zlnk_Hfb4m_1-O7ZJ-3" edge="1">
          <mxGeometry relative="1" as="geometry" />
        </mxCell>
        <mxCell id="z3-zlnk_Hfb4m_1-O7ZJ-2" value="" style="verticalLabelPosition=bottom;html=1;verticalAlign=top;align=center;strokeColor=none;fillColor=#00BEF2;shape=mxgraph.azure.user;" parent="1" vertex="1">
          <mxGeometry x="240.25" y="890" width="47.5" height="50" as="geometry" />
        </mxCell>
        <mxCell id="z3-zlnk_Hfb4m_1-O7ZJ-34" style="edgeStyle=orthogonalEdgeStyle;rounded=0;orthogonalLoop=1;jettySize=auto;html=1;entryX=0.48;entryY=0;entryDx=0;entryDy=0;entryPerimeter=0;" parent="1" source="z3-zlnk_Hfb4m_1-O7ZJ-3" target="z3-zlnk_Hfb4m_1-O7ZJ-1" edge="1">
          <mxGeometry relative="1" as="geometry" />
        </mxCell>
        <mxCell id="z3-zlnk_Hfb4m_1-O7ZJ-3" value="" style="verticalLabelPosition=bottom;html=1;verticalAlign=top;align=center;strokeColor=none;fillColor=#00BEF2;shape=mxgraph.azure.computer;pointerEvents=1;" parent="1" vertex="1">
          <mxGeometry x="239" y="984" width="50" height="45" as="geometry" />
        </mxCell>
        <mxCell id="z3-zlnk_Hfb4m_1-O7ZJ-4" value="" style="strokeColor=#dddddd;shadow=1;strokeWidth=1;rounded=1;absoluteArcSize=1;arcSize=2;" parent="1" vertex="1">
          <mxGeometry x="530" y="1076" width="160" height="54" as="geometry" />
        </mxCell>
        <mxCell id="z3-zlnk_Hfb4m_1-O7ZJ-5" value="Frontend&lt;br&gt;A System SPA Page" style="sketch=0;dashed=0;connectable=0;html=1;fillColor=#757575;strokeColor=none;shape=mxgraph.gcp2.frontend_platform_services;part=1;labelPosition=right;verticalLabelPosition=middle;align=left;verticalAlign=middle;spacingLeft=5;fontSize=12;" parent="z3-zlnk_Hfb4m_1-O7ZJ-4" vertex="1">
          <mxGeometry y="0.5" width="32" height="32" relative="1" as="geometry">
            <mxPoint x="5" y="-16" as="offset" />
          </mxGeometry>
        </mxCell>
        <mxCell id="z3-zlnk_Hfb4m_1-O7ZJ-39" style="edgeStyle=orthogonalEdgeStyle;rounded=0;orthogonalLoop=1;jettySize=auto;html=1;entryX=0;entryY=0.5;entryDx=0;entryDy=0;" parent="1" source="z3-zlnk_Hfb4m_1-O7ZJ-25" target="onjbGN8xjTctzTyq8wtD-2" edge="1">
          <mxGeometry relative="1" as="geometry">
            <mxPoint x="530" y="1020.9399999999998" as="targetPoint" />
          </mxGeometry>
        </mxCell>
        <mxCell id="z3-zlnk_Hfb4m_1-O7ZJ-40" style="edgeStyle=orthogonalEdgeStyle;rounded=0;orthogonalLoop=1;jettySize=auto;html=1;entryX=0;entryY=0.5;entryDx=0;entryDy=0;" parent="1" source="z3-zlnk_Hfb4m_1-O7ZJ-25" target="z3-zlnk_Hfb4m_1-O7ZJ-4" edge="1">
          <mxGeometry relative="1" as="geometry" />
        </mxCell>
        <mxCell id="z3-zlnk_Hfb4m_1-O7ZJ-25" value="&amp;lt;domain&amp;gt;/&amp;lt;service&amp;gt;" style="sketch=0;aspect=fixed;html=1;points=[];align=center;image;fontSize=12;image=img/lib/mscae/Route_Filter.svg;labelPosition=center;verticalLabelPosition=top;verticalAlign=bottom;" parent="1" vertex="1">
          <mxGeometry x="392" y="1038" width="50" height="42" as="geometry" />
        </mxCell>
        <mxCell id="z3-zlnk_Hfb4m_1-O7ZJ-41" style="edgeStyle=orthogonalEdgeStyle;rounded=0;orthogonalLoop=1;jettySize=auto;html=1;entryX=0;entryY=0.5;entryDx=0;entryDy=0;entryPerimeter=0;" parent="1" source="z3-zlnk_Hfb4m_1-O7ZJ-26" target="z3-zlnk_Hfb4m_1-O7ZJ-29" edge="1">
          <mxGeometry relative="1" as="geometry" />
        </mxCell>
        <mxCell id="z3-zlnk_Hfb4m_1-O7ZJ-26" value="&amp;lt;domain&amp;gt;/&amp;lt;service&amp;gt;/api" style="sketch=0;aspect=fixed;html=1;points=[];align=center;image;fontSize=12;image=img/lib/mscae/Route_Filter.svg;" parent="1" vertex="1">
          <mxGeometry x="392" y="1176.5" width="50" height="42" as="geometry" />
        </mxCell>
        <mxCell id="z3-zlnk_Hfb4m_1-O7ZJ-42" style="edgeStyle=orthogonalEdgeStyle;rounded=0;orthogonalLoop=1;jettySize=auto;html=1;" parent="1" source="z3-zlnk_Hfb4m_1-O7ZJ-29" target="z3-zlnk_Hfb4m_1-O7ZJ-14" edge="1">
          <mxGeometry relative="1" as="geometry" />
        </mxCell>
        <mxCell id="z3-zlnk_Hfb4m_1-O7ZJ-43" style="edgeStyle=orthogonalEdgeStyle;rounded=0;orthogonalLoop=1;jettySize=auto;html=1;entryX=0.02;entryY=0.6;entryDx=0;entryDy=0;entryPerimeter=0;" parent="1" source="z3-zlnk_Hfb4m_1-O7ZJ-29" target="z3-zlnk_Hfb4m_1-O7ZJ-16" edge="1">
          <mxGeometry relative="1" as="geometry">
            <Array as="points">
              <mxPoint x="750" y="1198" />
              <mxPoint x="750" y="1099" />
            </Array>
          </mxGeometry>
        </mxCell>
        <mxCell id="z3-zlnk_Hfb4m_1-O7ZJ-44" style="edgeStyle=orthogonalEdgeStyle;rounded=0;orthogonalLoop=1;jettySize=auto;html=1;entryX=0.02;entryY=0.64;entryDx=0;entryDy=0;entryPerimeter=0;" parent="1" source="z3-zlnk_Hfb4m_1-O7ZJ-29" target="z3-zlnk_Hfb4m_1-O7ZJ-15" edge="1">
          <mxGeometry relative="1" as="geometry">
            <Array as="points">
              <mxPoint x="720" y="1198" />
              <mxPoint x="720" y="1294" />
            </Array>
          </mxGeometry>
        </mxCell>
        <mxCell id="z3-zlnk_Hfb4m_1-O7ZJ-29" value="Add Bearer Token&lt;br&gt;&amp;nbsp;To Http Header" style="html=1;outlineConnect=0;whiteSpace=wrap;fillColor=#99ffff;shape=mxgraph.archimate3.application;appType=proc;archiType=rounded;" parent="1" vertex="1">
          <mxGeometry x="530" y="1170" width="140" height="55" as="geometry" />
        </mxCell>
        <mxCell id="z3-zlnk_Hfb4m_1-O7ZJ-31" value="Get Token / Refresh Token" style="edgeStyle=orthogonalEdgeStyle;rounded=0;orthogonalLoop=1;jettySize=auto;html=1;entryX=0.5;entryY=0;entryDx=0;entryDy=0;" parent="1" source="z3-zlnk_Hfb4m_1-O7ZJ-1" target="z4Z49xl3-SRctvhVcFWY-2" edge="1">
          <mxGeometry relative="1" as="geometry">
            <mxPoint x="265" y="1280" as="targetPoint" />
          </mxGeometry>
        </mxCell>
        <mxCell id="z3-zlnk_Hfb4m_1-O7ZJ-35" style="edgeStyle=orthogonalEdgeStyle;rounded=0;orthogonalLoop=1;jettySize=auto;html=1;" parent="1" source="z3-zlnk_Hfb4m_1-O7ZJ-1" target="z3-zlnk_Hfb4m_1-O7ZJ-25" edge="1">
          <mxGeometry relative="1" as="geometry" />
        </mxCell>
        <mxCell id="z3-zlnk_Hfb4m_1-O7ZJ-36" style="edgeStyle=orthogonalEdgeStyle;rounded=0;orthogonalLoop=1;jettySize=auto;html=1;" parent="1" source="z3-zlnk_Hfb4m_1-O7ZJ-1" target="z3-zlnk_Hfb4m_1-O7ZJ-26" edge="1">
          <mxGeometry relative="1" as="geometry" />
        </mxCell>
        <mxCell id="JrRLlRk_7xxY6lYXr-eH-5" value="Save Token / User Claim&lt;br&gt;to Cookies" style="edgeStyle=orthogonalEdgeStyle;rounded=0;orthogonalLoop=1;jettySize=auto;html=1;entryX=0;entryY=0.5;entryDx=0;entryDy=0;entryPerimeter=0;" parent="1" source="z3-zlnk_Hfb4m_1-O7ZJ-1" target="z3-zlnk_Hfb4m_1-O7ZJ-3" edge="1">
          <mxGeometry relative="1" as="geometry">
            <Array as="points">
              <mxPoint x="180" y="1115" />
              <mxPoint x="180" y="1007" />
              <mxPoint x="239" y="1007" />
            </Array>
          </mxGeometry>
        </mxCell>
        <mxCell id="z3-zlnk_Hfb4m_1-O7ZJ-1" value="AppGateway&lt;br&gt;https://&amp;lt;domain&amp;gt;" style="sketch=0;aspect=fixed;html=1;points=[];align=center;image;fontSize=12;image=img/lib/mscae/Application_Gateway.svg;" parent="1" vertex="1">
          <mxGeometry x="240" y="1090" width="50" height="50" as="geometry" />
        </mxCell>
        <mxCell id="z3-zlnk_Hfb4m_1-O7ZJ-38" value="" style="shape=image;verticalLabelPosition=bottom;labelBackgroundColor=#ffffff;verticalAlign=top;aspect=fixed;imageAspect=0;image=https://www.nginx.com/wp-content/uploads/2018/08/NGINX-logo-rgb-large.png;" parent="1" vertex="1">
          <mxGeometry x="600" y="1059.7054545454546" width="90" height="30.29" as="geometry" />
        </mxCell>
        <mxCell id="z3-zlnk_Hfb4m_1-O7ZJ-14" value="B System WebApi" style="sketch=0;aspect=fixed;html=1;points=[];align=center;image;fontSize=12;image=img/lib/mscae/WebHosting.svg;" parent="1" vertex="1">
          <mxGeometry x="800" y="1172" width="50" height="50" as="geometry" />
        </mxCell>
        <mxCell id="z3-zlnk_Hfb4m_1-O7ZJ-15" value="Common Function WebApi" style="sketch=0;aspect=fixed;html=1;points=[];align=center;image;fontSize=12;image=img/lib/mscae/WebHosting.svg;" parent="1" vertex="1">
          <mxGeometry x="800" y="1262.5" width="50" height="50" as="geometry" />
        </mxCell>
        <mxCell id="z3-zlnk_Hfb4m_1-O7ZJ-16" value="A System WebApi" style="sketch=0;aspect=fixed;html=1;points=[];align=center;image;fontSize=12;image=img/lib/mscae/WebHosting.svg;" parent="1" vertex="1">
          <mxGeometry x="800" y="1069" width="50" height="50" as="geometry" />
        </mxCell>
        <mxCell id="onjbGN8xjTctzTyq8wtD-2" value="" style="strokeColor=#dddddd;shadow=1;strokeWidth=1;rounded=1;absoluteArcSize=1;arcSize=2;" parent="1" vertex="1">
          <mxGeometry x="565" y="987.65" width="160" height="54" as="geometry" />
        </mxCell>
        <mxCell id="onjbGN8xjTctzTyq8wtD-3" value="Frontend&lt;br&gt;B System SPA Page" style="sketch=0;dashed=0;connectable=0;html=1;fillColor=#757575;strokeColor=none;shape=mxgraph.gcp2.frontend_platform_services;part=1;labelPosition=right;verticalLabelPosition=middle;align=left;verticalAlign=middle;spacingLeft=5;fontSize=12;" parent="onjbGN8xjTctzTyq8wtD-2" vertex="1">
          <mxGeometry y="0.5" width="32" height="32" relative="1" as="geometry">
            <mxPoint x="5" y="-16" as="offset" />
          </mxGeometry>
        </mxCell>
        <mxCell id="onjbGN8xjTctzTyq8wtD-4" value="" style="shape=image;verticalLabelPosition=bottom;labelBackgroundColor=#ffffff;verticalAlign=top;aspect=fixed;imageAspect=0;image=https://www.nginx.com/wp-content/uploads/2018/08/NGINX-logo-rgb-large.png;" parent="1" vertex="1">
          <mxGeometry x="635" y="971.3554545454546" width="90" height="30.29" as="geometry" />
        </mxCell>
        <mxCell id="z4Z49xl3-SRctvhVcFWY-2" value="" style="shape=image;verticalLabelPosition=bottom;labelBackgroundColor=default;verticalAlign=top;aspect=fixed;imageAspect=0;image=https://raw.githubusercontent.com/keycloak/keycloak-misc/main/logo/logo.svg;" parent="1" vertex="1">
          <mxGeometry x="145" y="1280" width="240" height="49.65" as="geometry" />
        </mxCell>
      </root>
    </mxGraphModel>
  </diagram>
</mxfile>
